<?xml version="1.0" encoding="UTF-8" standalone="no"?>
<svg
   xmlns:dc="http://purl.org/dc/elements/1.1/"
   xmlns:cc="http://creativecommons.org/ns#"
   xmlns:rdf="http://www.w3.org/1999/02/22-rdf-syntax-ns#"
   xmlns:svg="http://www.w3.org/2000/svg"
   xmlns="http://www.w3.org/2000/svg"
   xmlns:sodipodi="http://sodipodi.sourceforge.net/DTD/sodipodi-0.dtd"
   xmlns:inkscape="http://www.inkscape.org/namespaces/inkscape"
   width="480"
   height="150"
   viewBox="0 0 480 150"
   version="1.1"
   id="svg1488"
   sodipodi:docname="cinia.svg"
   inkscape:version="1.0.2-2 (e86c870879, 2021-01-15)">
  <metadata
     id="metadata1494">
    <rdf:RDF>
      <cc:Work
         rdf:about="">
        <dc:format>image/svg+xml</dc:format>
        <dc:type
           rdf:resource="http://purl.org/dc/dcmitype/StillImage" />
        <dc:title>cinia-logo@1x</dc:title>
      </cc:Work>
    </rdf:RDF>
  </metadata>
  <defs
     id="defs1492" />
  <sodipodi:namedview
     pagecolor="#ffffff"
     bordercolor="#666666"
     borderopacity="1"
     objecttolerance="10"
     gridtolerance="10"
     guidetolerance="10"
     inkscape:pageopacity="0"
     inkscape:pageshadow="2"
     inkscape:window-width="3440"
     inkscape:window-height="1387"
     id="namedview1490"
     showgrid="false"
     inkscape:zoom="1.3157237"
     inkscape:cx="296.91836"
     inkscape:cy="161.43015"
     inkscape:window-x="-8"
     inkscape:window-y="549"
     inkscape:window-maximized="1"
     inkscape:current-layer="svg1488" />
  <title
     id="title1475">cinia-logo@1x</title>
  <g
     id="cinia-logo"
     stroke="none"
     stroke-width="1"
     fill="none"
     fill-rule="evenodd"
     transform="matrix(2.9652411,0,0,2.9652411,33.441672,6.080304)">
    <g
       id="Cinia_logo_red-blue_RGB"
       fill-rule="nonzero">
      <path
         d="M 140,36.705542 V 24.222498 c 0,-2.57072 -0.75306,-4.453267 -2.26249,-5.641026 -1.50943,-1.191067 -3.45344,-1.783292 -5.83867,-1.783292 -3.3108,0 -6.25336,0.933003 -8.831,2.802316 l 2.30561,3.331679 c 0,0 1.76156,-0.823821 2.82314,-1.204301 1.05826,-0.373862 2.06012,-0.562448 3.0089,-0.562448 2.21273,0 3.32075,1.042184 3.32075,3.129859 v 0.109182 h -4.08707 c -2.5312,0 -4.52498,0.496277 -5.98464,1.492142 -1.45967,0.995864 -2.18951,2.491315 -2.18951,4.492969 0,2.001654 0.70661,3.602978 2.11652,4.80397 1.40991,1.200993 3.15488,1.799835 5.23491,1.799835 2.08002,0 3.82499,-0.883375 5.23822,-2.656741 l 0.1725,2.365591 H 140 v 0.0033 z m -5.51025,-7.460712 c 0,0.995865 -0.37155,1.789909 -1.11466,2.382134 -0.7431,0.595534 -1.60232,0.889992 -2.57432,0.889992 -0.97201,0 -1.72175,-0.185277 -2.24259,-0.562448 -0.52083,-0.377171 -0.78622,-0.91646 -0.78622,-1.621175 0,-1.356493 1.09475,-2.034739 3.28425,-2.034739 h 3.43354 z m -16.8061,-14.765922 c 0.62036,-0.618693 0.9322,-1.376344 0.9322,-2.272953 0,-0.899917 -0.30852,-1.657568 -0.9322,-2.276261 C 117.06329,9.3110008 116.3036,9 115.40126,9 c -0.89902,0 -1.65871,0.3110008 -2.27907,0.929694 -0.62036,0.618693 -0.9322,1.376344 -0.9322,2.276261 0,0.896609 0.31184,1.657569 0.9322,2.272953 0.62036,0.618693 1.38005,0.929694 2.27907,0.929694 0.90234,-0.0033 1.66535,-0.314309 2.28239,-0.929694 m -15.45258,22.226634 h 5.47375 V 24.804797 c 0,-2.425144 -0.69997,-4.367245 -2.09661,-5.822994 -1.39996,-1.455748 -3.13166,-2.183623 -5.20173,-2.183623 -2.070078,0 -3.927838,0.840364 -5.583236,2.511167 v -2.180315 l -5.473758,1.164599 V 36.70885 h 5.473758 V 25.790736 c 0,-1.528536 0.408044,-2.686518 1.220814,-3.477254 0.812771,-0.787427 1.76819,-1.181141 2.86626,-1.181141 2.212722,0 3.320752,1.505376 3.320752,4.51282 z M 83.709855,14.478908 c 0.62036,-0.618693 0.932198,-1.376344 0.932198,-2.272953 0,-0.899917 -0.311838,-1.657568 -0.932198,-2.276261 C 83.089496,9.3110008 82.329805,9 81.427464,9 80.52844,9 79.765432,9.3110008 79.14839,9.929694 c -0.62036,0.618693 -0.932198,1.376344 -0.932198,2.276261 0,0.896609 0.311838,1.657569 0.932198,2.272953 0.620359,0.618693 1.38005,0.929694 2.279074,0.929694 0.902341,-0.0033 1.66535,-0.314309 2.282391,-0.929694 m -12.35079,4.976013 3.539698,-4.003308 c -2.823133,-3.176179 -6.323021,-4.764268 -10.509617,-4.764268 -3.745378,0 -6.913524,1.260546 -9.504436,3.784946 C 52.293797,16.996691 51,20.143093 51,23.914806 c 0,3.77502 1.270575,6.898263 3.811727,9.373035 C 57.356195,35.762614 60.587371,37 64.518525,37 68.446362,37 71.85668,35.375517 74.752796,32.123242 L 71.103623,28.37469 c -1.774825,2.206782 -4.063851,3.311828 -6.860444,3.311828 -2.043537,0 -3.785187,-0.71464 -5.218317,-2.147229 -1.436447,-1.429281 -2.153012,-3.328371 -2.153012,-5.693962 0,-2.365592 0.763009,-4.244831 2.279074,-5.641026 1.522701,-1.392887 3.350604,-2.090984 5.493664,-2.090984 2.673848,-0.0066 4.913113,1.108354 6.714477,3.341604 m 12.808596,-2.329197 -5.473759,1.164599 V 36.70885 h 5.473759 z m 33.973799,0 -5.47376,1.164599 V 36.70885 h 5.47376 z"
         id="Shape"
         fill="#0c2340" />
      <g
         id="Group-4">
        <path
           d="m 23.252893,40.793333 c 4.750413,0 9.051239,-1.943333 12.165289,-5.08 l -5.381818,-5.426666 c -1.735538,1.75 -4.135538,2.833333 -6.783471,2.833333 -5.299174,0 -9.593389,-4.33 -9.593389,-9.673333 H 6.0495857 c -0.0033,9.576666 7.6991743,17.346666 17.2033073,17.346666"
           id="Path"
           fill="#f4364c" />
        <path
           d="m 6.046281,23.443333 h 7.609917 C 13.656198,18.1 17.950413,13.77 23.249587,13.77 c 2.647934,0 5.047934,1.083333 6.783471,2.833333 l 5.381818,-5.426666 C 32.300826,8.0366667 28,6.0966667 23.249587,6.0966667 c -9.500827,0 -17.203306,7.7666663 -17.203306,17.3466663"
           id="path1479"
           fill="#a50034" />
        <path
           d="M 6.046281,23.443333 H 0 C 0,36.39 10.409917,46.886667 23.249587,46.886667 c 6.419834,0 12.231405,-2.623334 16.439669,-6.866667 l -4.27438,-4.31 C 32.300826,38.85 28,40.79 23.249587,40.79 13.74876,40.793333 6.046281,33.023333 6.046281,23.443333"
           id="path1481"
           fill="#a50034" />
        <path
           d="M 6.046281,23.443333 H 0 C 0,10.496667 10.409917,0 23.249587,0 29.669421,0 35.480992,2.6233333 39.689256,6.8666667 l -4.27438,4.3100003 C 32.300826,8.0366667 28,6.0966667 23.249587,6.0966667 c -9.500827,0 -17.203306,7.7666663 -17.203306,17.3466663"
           id="path1483"
           fill="#f4364c" />
      </g>
    </g>
  </g>
</svg>
